<svg xmlns="http://www.w3.org/2000/svg" version="1.1" xmlns:xlink="http://www.w3.org/1999/xlink" xmlns:svgjs="http://svgjs.dev/svgjs" width="1000" height="1000" viewBox="0 0 1000 1000"><rect width="1000" height="1000" fill="#ffffff"></rect><g transform="matrix(0.7,0,0,0.7,149.57577369087232,282.13185546558714)"><svg viewBox="0 0 396 247" data-background-color="#ffffff" preserveAspectRatio="xMidYMid meet" height="623" width="1000" xmlns="http://www.w3.org/2000/svg" xmlns:xlink="http://www.w3.org/1999/xlink"><g id="tight-bounds" transform="matrix(1,0,0,1,0.2399909689170272,-0.09999999999999432)"><svg viewBox="0 0 395.52 247.2" height="247.2" width="395.52"><g><svg></svg></g><g><svg viewBox="0 0 395.52 247.2" height="247.2" width="395.52"><g><g><path xmlns="http://www.w3.org/2000/svg" d="M98.834 20.401c0-5.777 1.943-10.451 5.829-14.023 3.624-3.624 7.563-5.751 11.817-6.381 8.456 0 15.099 3.335 19.931 10.005l16.753 25.25h-54.33zM267.655 14.492c0-4.832 0.919-8.14 2.757-9.926 3.309-3.046 6.539-4.569 9.69-4.569 3.204 0 5.698 0.315 7.484 0.946 1.838 0.578 3.361 1.471 4.569 2.678 3.309 2.416 4.805 6.04 4.49 10.871l0 20.76-28.99 0zM296.645 226.799c0 9.086-4.385 15.44-13.156 19.064-2.101 0.893-4.805 1.339-8.114 1.34-7.248 0-13.576-3.309-18.985-9.926l-16.637-25.329 56.892 0zM128.218 233.653c0 4.201-1.208 7.221-3.624 9.059-3.624 2.994-7.405 4.49-11.344 4.491-3.886 0-7.274-1.129-10.162-3.388-2.836-2.258-4.254-5.646-4.254-10.162l0-21.705 29.384 0z" fill="#cb769e" fill-rule="nonzero" stroke="none" stroke-width="1" stroke-linecap="butt" stroke-linejoin="miter" stroke-miterlimit="10" stroke-dasharray="" stroke-dashoffset="0" font-family="none" font-weight="none" font-size="none" text-anchor="none" style="mix-blend-mode: normal" data-fill-palette-color="tertiary"></path></g></g><g transform="matrix(1,0,0,1,0,49.13056529718091)"><svg viewBox="0 0 395.52 148.93886940563817" height="148.93886940563817" width="395.52"><g><svg viewBox="0 0 395.52 148.93886940563817" height="148.93886940563817" width="395.52"><g><svg viewBox="0 0 395.52 148.93886940563817" height="148.93886940563817" width="395.52"><g><svg viewBox="0 0 395.52 148.93886940563817" height="148.93886940563817" width="395.52"><g><svg viewBox="0 0 395.52 148.93886940563817" height="148.93886940563817" width="395.52"><g><svg viewBox="0 0 395.52 95.10639880952381" height="95.10639880952381" width="395.52"><g transform="matrix(1,0,0,1,0,0)"><svg width="395.52" viewBox="3.9700000286102295 -31.3799991607666 132.39999389648438 31.84111785888672" height="95.10639880952381" data-palette-color="#690375"><path d="M3.97-1.72L3.97-28.79Q3.97-29.89 4.71-30.57L4.71-30.57Q5.4-31.26 6.21-31.38L6.21-31.38Q7.82-31.38 8.74-30.11L8.74-30.11 25.4-5 25.4-29.54Q25.4-30.46 25.75-30.8L25.75-30.8Q26.38-31.38 26.98-31.38 27.59-31.38 27.93-31.26 28.28-31.15 28.51-30.92L28.51-30.92Q29.14-30.46 29.08-29.54L29.08-29.54 29.08-2.59Q29.08-0.86 27.41-0.17L27.41-0.17Q27.01 0 26.38 0L26.38 0Q25 0 23.97-1.26L23.97-1.26 7.7-26.03 7.7-1.72Q7.7-0.92 7.24-0.57L7.24-0.57Q6.55 0 5.8 0 5.06 0 4.51-0.43 3.97-0.86 3.97-1.72L3.97-1.72ZM55.8-11.55L55.8-11.55Q55.8-10.34 54.42-10.23L54.42-10.23 38.68-10.23Q38.91-4.37 43.27-2.64L43.27-2.64Q44.48-2.24 46.03-2.24L46.03-2.24Q49.25-2.24 52.58-4.6L52.58-4.6Q53.62-5.17 54.31-4.48L54.31-4.48Q54.65-4.14 54.54-3.79L54.54-3.79Q54.54-2.99 54.14-2.64L54.14-2.64Q50.97 0.52 45.8 0.46L45.8 0.46Q41.09 0.46 38.22-2.59L38.22-2.59Q35-5.75 35-10.92L35-10.92Q35-15.69 37.64-18.79L37.64-18.79Q40.4-22.24 45.46-22.24L45.46-22.24Q50.51-22.24 53.16-19.2L53.16-19.2Q55.69-16.44 55.8-11.55ZM38.79-12.59L52.41-12.59Q52.24-15.69 50.4-17.7L50.4-17.7Q48.68-19.54 45.46-19.54L45.46-19.54Q42.7-19.54 40.74-17.47L40.74-17.47Q38.96-15.4 38.79-12.59L38.79-12.59ZM59.94-2.41L66.89-11.21 60.51-19.08Q60.17-19.43 60.22-19.94 60.28-20.46 60.4-20.75 60.51-21.03 60.74-21.26L60.74-21.26Q61.37-21.84 62.09-21.84 62.81-21.84 63.5-21.03L63.5-21.03 69.31-13.33 75.22-21.15Q75.68-21.84 76.37-21.84 77.06-21.84 77.58-21.35 78.1-20.86 78.1-20.34 78.1-19.83 77.75-19.48L77.75-19.48 71.37-11.21 78.21-2.64Q78.56-2.24 78.56-1.81 78.56-1.38 78.41-1.03 78.27-0.69 77.98-0.52L77.98-0.52Q77.29 0 76.6 0 75.91 0 75.22-0.69L75.22-0.69 68.9-9.08 62.47-0.57Q62.06 0 61.55 0L61.55 0Q60.68 0 60.17-0.46 59.65-0.92 59.65-1.44 59.65-1.95 59.94-2.41L59.94-2.41ZM94.13-13.28L94.13-13.28Q95.34-13.28 96.54-13.22L96.54-13.22 96.54-15.06Q96.54-19.54 91.54-19.54L91.54-19.54Q89.3-19.54 88.27-19.14L88.27-19.14Q86.43-18.45 85.62-17.96 84.82-17.47 84.36-17.47 83.9-17.47 83.5-17.82 83.1-18.16 83.1-18.74L83.1-18.74Q83.1-19.2 83.61-19.66L83.61-19.66Q86.31-22.24 91.6-22.24L91.6-22.24Q97.69-22.24 99.42-18.16L99.42-18.16Q99.99-16.72 99.99-14.83L99.99-14.83 99.88-1.55Q99.88-0.8 99.36-0.4 98.84 0 98.21 0 97.58 0 97.06-0.34 96.54-0.69 96.54-1.49L96.54-1.49 96.54-3.56Q95.16-0.57 91.6 0.17L91.6 0.17Q90.51 0.46 89.13 0.46 87.75 0.46 86.4 0.06 85.05-0.34 84.02-1.21L84.02-1.21Q81.89-2.99 81.89-6.03L81.89-6.03Q81.89-13.28 94.13-13.28ZM96.54-8.74L96.54-10.69Q95.62-10.57 94.42-10.57 93.21-10.57 91.95-10.55 90.68-10.52 89.53-10.26 88.38-10 87.46-9.48L87.46-9.48Q85.51-8.45 85.39-6.09L85.39-6.09Q85.39-4.25 86.89-3.22L86.89-3.22Q88.04-2.3 90.16-2.24L90.16-2.24Q92.75-2.24 94.65-3.91L94.65-3.91Q96.37-5.52 96.54-8.74L96.54-8.74ZM106.6-1.72L106.6-29.54Q106.6-30.46 107.17-30.86 107.75-31.26 108.21-31.26 108.67-31.26 108.96-31.21 109.24-31.15 109.53-30.86L109.53-30.86Q110.16-30.46 110.16-29.54L110.16-29.54 110.16-1.72Q110.16-0.86 109.59-0.43 109.01 0 108.32 0L108.32 0Q107.63 0 107.12-0.43 106.6-0.86 106.6-1.72L106.6-1.72ZM136.37-11.55L136.37-11.55Q136.37-10.34 134.99-10.23L134.99-10.23 119.24-10.23Q119.47-4.37 123.84-2.64L123.84-2.64Q125.04-2.24 126.6-2.24L126.6-2.24Q129.82-2.24 133.15-4.6L133.15-4.6Q134.18-5.17 134.87-4.48L134.87-4.48Q135.22-4.14 135.1-3.79L135.1-3.79Q135.1-2.99 134.7-2.64L134.7-2.64Q131.54 0.52 126.37 0.46L126.37 0.46Q121.65 0.46 118.78-2.59L118.78-2.59Q115.56-5.75 115.56-10.92L115.56-10.92Q115.56-15.69 118.21-18.79L118.21-18.79Q120.96-22.24 126.02-22.24L126.02-22.24Q131.08-22.24 133.72-19.2L133.72-19.2Q136.25-16.44 136.37-11.55ZM119.36-12.59L132.98-12.59Q132.8-15.69 130.96-17.7L130.96-17.7Q129.24-19.54 126.02-19.54L126.02-19.54Q123.26-19.54 121.31-17.47L121.31-17.47Q119.53-15.4 119.36-12.59L119.36-12.59Z" opacity="1" transform="matrix(1,0,0,1,0,0)" fill="#690375" class="undefined-text-0" data-fill-palette-color="primary" id="text-0"></path></svg></g></svg></g><g transform="matrix(1,0,0,1,0,108.98470494940476)"><svg viewBox="0 0 395.52 39.95416445623342" height="39.95416445623342" width="395.52"><g transform="matrix(1,0,0,1,0,0)"><svg width="395.52" viewBox="2.25 -35.70000076293945 452.3699951171875 45.70000076293945" height="39.95416445623342" data-palette-color="#8b3c7f"><path d="M23.55-23.1L23.55-24.9Q23.55-26.6 22.88-27.9 22.2-29.2 21.05-30.05 19.9-30.9 18.4-31.35 16.9-31.8 15.25-31.8L15.25-31.8Q13.8-31.8 12.5-31.43 11.2-31.05 10.18-30.35 9.15-29.65 8.55-28.63 7.95-27.6 7.95-26.25L7.95-26.25 7.95-25.95Q7.95-24.5 8.55-23.48 9.15-22.45 10.33-21.73 11.5-21 13.25-20.53 15-20.05 17.35-19.7L17.35-19.7Q22.85-18.85 25.45-16.48 28.05-14.1 28.05-10.1L28.05-10.1 28.05-9.5Q28.05-7.25 27.28-5.38 26.5-3.5 24.98-2.15 23.45-0.8 21.2-0.05 18.95 0.7 16 0.7L16 0.7Q12.65 0.7 10.08-0.28 7.5-1.25 5.78-2.98 4.05-4.7 3.15-7.03 2.25-9.35 2.25-12.1L2.25-12.1 2.25-13.6 6.45-13.6 6.45-12.4Q6.45-7.8 8.97-5.5 11.5-3.2 16-3.2L16-3.2Q19.9-3.2 21.88-4.93 23.85-6.65 23.85-9.5L23.85-9.5 23.85-9.8Q23.85-12.55 21.83-14 19.8-15.45 15.25-16.1L15.25-16.1Q12.6-16.45 10.48-17.18 8.35-17.9 6.85-19.07 5.35-20.25 4.55-21.9 3.75-23.55 3.75-25.8L3.75-25.8 3.75-26.4Q3.75-28.45 4.6-30.15 5.45-31.85 6.98-33.1 8.5-34.35 10.63-35.02 12.75-35.7 15.3-35.7L15.3-35.7Q18.25-35.7 20.58-34.85 22.9-34 24.5-32.58 26.1-31.15 26.93-29.23 27.75-27.3 27.75-25.2L27.75-25.2 27.75-23.1 23.55-23.1ZM52.95-3.9L52.95-4.2 52.35-4.2Q51.15-1.7 49.02-0.5 46.9 0.7 44.55 0.7L44.55 0.7Q42.1 0.7 40-0.13 37.9-0.95 36.32-2.58 34.75-4.2 33.85-6.55 32.95-8.9 32.95-12L32.95-12 32.95-12.8Q32.95-15.85 33.85-18.2 34.75-20.55 36.32-22.18 37.9-23.8 40-24.65 42.1-25.5 44.45-25.5L44.45-25.5Q47-25.5 49.07-24.38 51.15-23.25 52.35-20.9L52.35-20.9 52.95-20.9 52.95-24.8 56.85-24.8 56.85-5.1Q56.85-3.6 58.2-3.6L58.2-3.6 59.45-3.6 59.45 0 56.8 0Q55.1 0 54.02-1.1 52.95-2.2 52.95-3.9L52.95-3.9ZM44.95-3L44.95-3Q46.7-3 48.17-3.65 49.65-4.3 50.7-5.5 51.75-6.7 52.35-8.38 52.95-10.05 52.95-12.1L52.95-12.1 52.95-12.7Q52.95-14.7 52.35-16.38 51.75-18.05 50.67-19.25 49.6-20.45 48.12-21.13 46.65-21.8 44.95-21.8L44.95-21.8Q43.2-21.8 41.75-21.15 40.3-20.5 39.22-19.33 38.15-18.15 37.55-16.48 36.95-14.8 36.95-12.8L36.95-12.8 36.95-12Q36.95-7.75 39.17-5.38 41.4-3 44.95-3ZM65.55 0L65.55-3.6 74.55-3.6 74.55-31.4 65.85-31.4 65.85-35 78.45-35 78.45-3.6 87.45-3.6 87.45 0 65.55 0ZM118.99-11.2L98.99-11.2Q99.14-7.5 101.29-5.25 103.44-3 107.29-3L107.29-3Q109.04-3 110.34-3.4 111.64-3.8 112.57-4.5 113.49-5.2 114.07-6.13 114.64-7.05 114.99-8.1L114.99-8.1 118.69-7.1Q117.64-3.65 114.82-1.48 111.99 0.7 107.19 0.7L107.19 0.7Q104.54 0.7 102.32-0.23 100.09-1.15 98.49-2.85 96.89-4.55 95.99-6.9 95.09-9.25 95.09-12.1L95.09-12.1 95.09-13.3Q95.09-15.9 96.02-18.15 96.94-20.4 98.59-22.03 100.24-23.65 102.47-24.58 104.69-25.5 107.29-25.5L107.29-25.5Q110.34-25.5 112.57-24.38 114.79-23.25 116.22-21.6 117.64-19.95 118.32-18 118.99-16.05 118.99-14.4L118.99-14.4 118.99-11.2ZM107.29-21.8L107.29-21.8Q105.64-21.8 104.22-21.28 102.79-20.75 101.72-19.8 100.64-18.85 99.97-17.57 99.29-16.3 99.09-14.8L99.09-14.8 115.09-14.8Q114.99-16.4 114.32-17.7 113.64-19 112.57-19.9 111.49-20.8 110.12-21.3 108.74-21.8 107.29-21.8ZM131.89-18.4L131.89-18.4Q131.89-16.6 133.42-15.65 134.94-14.7 138.99-14.4L138.99-14.4Q143.34-14.05 145.62-12.33 147.89-10.6 147.89-7.3L147.89-7.3 147.89-7Q147.89-5.2 147.17-3.78 146.44-2.35 145.17-1.35 143.89-0.35 142.07 0.18 140.24 0.7 138.09 0.7L138.09 0.7Q135.19 0.7 133.12-0.08 131.04-0.85 129.67-2.13 128.29-3.4 127.59-5.03 126.89-6.65 126.79-8.3L126.79-8.3 130.49-9.2Q130.74-6.35 132.69-4.63 134.64-2.9 137.89-2.9L137.89-2.9Q140.64-2.9 142.32-3.98 143.99-5.05 143.99-7L143.99-7Q143.99-9.1 142.34-10 140.69-10.9 136.99-11.15L136.99-11.15Q132.69-11.45 130.39-13.15 128.09-14.85 128.09-18.1L128.09-18.1 128.09-18.4Q128.09-20.15 128.84-21.48 129.59-22.8 130.87-23.7 132.14-24.6 133.74-25.05 135.34-25.5 137.09-25.5L137.09-25.5Q139.54-25.5 141.39-24.83 143.24-24.15 144.49-23.08 145.74-22 146.42-20.6 147.09-19.2 147.29-17.8L147.29-17.8 143.59-16.9Q143.34-19.3 141.67-20.65 139.99-22 137.29-22L137.29-22Q136.24-22 135.27-21.78 134.29-21.55 133.54-21.1 132.79-20.65 132.34-19.98 131.89-19.3 131.89-18.4ZM211.79-19.1L211.79 0 207.89 0 207.89-17.8Q207.89-19.55 207.09-20.68 206.29-21.8 204.54-21.8L204.54-21.8Q202.89-21.8 201.86-20.58 200.84-19.35 200.84-16.8L200.84-16.8 200.84 0 196.94 0 196.94-18Q196.94-19.65 196.03-20.73 195.14-21.8 193.64-21.8L193.64-21.8Q191.84-21.8 190.86-20.5 189.89-19.2 189.89-17.1L189.89-17.1 189.89 0 185.99 0 185.99-24.8 189.89-24.8 189.89-22.1 190.49-22.1Q191.14-23.85 192.39-24.68 193.64-25.5 195.34-25.5L195.34-25.5Q197.14-25.5 198.31-24.55 199.49-23.6 199.94-22.1L199.94-22.1 200.53-22.1Q202.24-25.5 205.94-25.5L205.94-25.5Q208.74-25.5 210.26-23.73 211.79-21.95 211.79-19.1L211.79-19.1ZM236.53-3.9L236.53-4.2 235.93-4.2Q234.73-1.7 232.61-0.5 230.48 0.7 228.13 0.7L228.13 0.7Q225.68 0.7 223.58-0.13 221.48-0.95 219.91-2.58 218.33-4.2 217.43-6.55 216.53-8.9 216.53-12L216.53-12 216.53-12.8Q216.53-15.85 217.43-18.2 218.33-20.55 219.91-22.18 221.48-23.8 223.58-24.65 225.68-25.5 228.03-25.5L228.03-25.5Q230.58-25.5 232.66-24.38 234.73-23.25 235.93-20.9L235.93-20.9 236.53-20.9 236.53-24.8 240.43-24.8 240.43-5.1Q240.43-3.6 241.78-3.6L241.78-3.6 243.03-3.6 243.03 0 240.38 0Q238.68 0 237.61-1.1 236.53-2.2 236.53-3.9L236.53-3.9ZM228.53-3L228.53-3Q230.28-3 231.76-3.65 233.23-4.3 234.28-5.5 235.33-6.7 235.93-8.38 236.53-10.05 236.53-12.1L236.53-12.1 236.53-12.7Q236.53-14.7 235.93-16.38 235.33-18.05 234.26-19.25 233.18-20.45 231.71-21.13 230.23-21.8 228.53-21.8L228.53-21.8Q226.78-21.8 225.33-21.15 223.88-20.5 222.81-19.33 221.73-18.15 221.13-16.48 220.53-14.8 220.53-12.8L220.53-12.8 220.53-12Q220.53-7.75 222.76-5.38 224.98-3 228.53-3ZM268.33 0L268.33-3.8 267.73-3.8Q267.13-2.65 266.2-1.8 265.28-0.95 264.2-0.4 263.13 0.15 261.93 0.43 260.73 0.7 259.63 0.7L259.63 0.7Q257.13 0.7 254.98-0.15 252.83-1 251.21-2.6 249.58-4.2 248.66-6.58 247.73-8.95 247.73-12L247.73-12 247.73-12.8Q247.73-15.8 248.68-18.18 249.63-20.55 251.23-22.18 252.83-23.8 254.98-24.65 257.13-25.5 259.53-25.5L259.53-25.5Q262.08-25.5 264.31-24.38 266.53-23.25 267.73-20.9L267.73-20.9 268.33-20.9 268.33-35 272.23-35 272.23 0 268.33 0ZM260.03-3L260.03-3Q261.78-3 263.28-3.65 264.78-4.3 265.9-5.5 267.03-6.7 267.68-8.38 268.33-10.05 268.33-12.1L268.33-12.1 268.33-12.7Q268.33-14.7 267.68-16.38 267.03-18.05 265.9-19.25 264.78-20.45 263.25-21.13 261.73-21.8 260.03-21.8L260.03-21.8Q258.28-21.8 256.75-21.15 255.23-20.5 254.1-19.3 252.98-18.1 252.35-16.45 251.73-14.8 251.73-12.8L251.73-12.8 251.73-12Q251.73-9.9 252.35-8.25 252.98-6.6 254.1-5.43 255.23-4.25 256.73-3.63 258.23-3 260.03-3ZM302.58-11.2L282.58-11.2Q282.73-7.5 284.88-5.25 287.03-3 290.88-3L290.88-3Q292.63-3 293.93-3.4 295.23-3.8 296.15-4.5 297.08-5.2 297.65-6.13 298.23-7.05 298.58-8.1L298.58-8.1 302.28-7.1Q301.23-3.65 298.4-1.48 295.58 0.7 290.78 0.7L290.78 0.7Q288.13 0.7 285.9-0.23 283.68-1.15 282.08-2.85 280.48-4.55 279.58-6.9 278.68-9.25 278.68-12.1L278.68-12.1 278.68-13.3Q278.68-15.9 279.6-18.15 280.53-20.4 282.18-22.03 283.83-23.65 286.05-24.58 288.28-25.5 290.88-25.5L290.88-25.5Q293.93-25.5 296.15-24.38 298.38-23.25 299.8-21.6 301.23-19.95 301.9-18 302.58-16.05 302.58-14.4L302.58-14.4 302.58-11.2ZM290.88-21.8L290.88-21.8Q289.23-21.8 287.8-21.28 286.38-20.75 285.3-19.8 284.23-18.85 283.55-17.57 282.88-16.3 282.68-14.8L282.68-14.8 298.68-14.8Q298.58-16.4 297.9-17.7 297.23-19 296.15-19.9 295.08-20.8 293.7-21.3 292.33-21.8 290.88-21.8ZM363.77-11.2L343.77-11.2Q343.92-7.5 346.07-5.25 348.22-3 352.07-3L352.07-3Q353.82-3 355.12-3.4 356.42-3.8 357.35-4.5 358.27-5.2 358.85-6.13 359.42-7.05 359.77-8.1L359.77-8.1 363.47-7.1Q362.42-3.65 359.6-1.48 356.77 0.7 351.97 0.7L351.97 0.7Q349.32 0.7 347.1-0.23 344.87-1.15 343.27-2.85 341.67-4.55 340.77-6.9 339.87-9.25 339.87-12.1L339.87-12.1 339.87-13.3Q339.87-15.9 340.8-18.15 341.72-20.4 343.37-22.03 345.02-23.65 347.25-24.58 349.47-25.5 352.07-25.5L352.07-25.5Q355.12-25.5 357.35-24.38 359.57-23.25 361-21.6 362.42-19.95 363.1-18 363.77-16.05 363.77-14.4L363.77-14.4 363.77-11.2ZM352.07-21.8L352.07-21.8Q350.42-21.8 349-21.28 347.57-20.75 346.5-19.8 345.42-18.85 344.75-17.57 344.07-16.3 343.87-14.8L343.87-14.8 359.87-14.8Q359.77-16.4 359.1-17.7 358.42-19 357.35-19.9 356.27-20.8 354.9-21.3 353.52-21.8 352.07-21.8ZM389.52-3.9L389.52-4.2 388.92-4.2Q387.72-1.7 385.6-0.5 383.47 0.7 381.12 0.7L381.12 0.7Q378.67 0.7 376.57-0.13 374.47-0.95 372.9-2.58 371.32-4.2 370.42-6.55 369.52-8.9 369.52-12L369.52-12 369.52-12.8Q369.52-15.85 370.42-18.2 371.32-20.55 372.9-22.18 374.47-23.8 376.57-24.65 378.67-25.5 381.02-25.5L381.02-25.5Q383.57-25.5 385.65-24.38 387.72-23.25 388.92-20.9L388.92-20.9 389.52-20.9 389.52-24.8 393.42-24.8 393.42-5.1Q393.42-3.6 394.77-3.6L394.77-3.6 396.02-3.6 396.02 0 393.37 0Q391.67 0 390.6-1.1 389.52-2.2 389.52-3.9L389.52-3.9ZM381.52-3L381.52-3Q383.27-3 384.75-3.65 386.22-4.3 387.27-5.5 388.32-6.7 388.92-8.38 389.52-10.05 389.52-12.1L389.52-12.1 389.52-12.7Q389.52-14.7 388.92-16.38 388.32-18.05 387.25-19.25 386.17-20.45 384.7-21.13 383.22-21.8 381.52-21.8L381.52-21.8Q379.77-21.8 378.32-21.15 376.87-20.5 375.8-19.33 374.72-18.15 374.12-16.48 373.52-14.8 373.52-12.8L373.52-12.8 373.52-12Q373.52-7.75 375.75-5.38 377.97-3 381.52-3ZM407.27-18.4L407.27-18.4Q407.27-16.6 408.79-15.65 410.32-14.7 414.37-14.4L414.37-14.4Q418.72-14.05 420.99-12.33 423.27-10.6 423.27-7.3L423.27-7.3 423.27-7Q423.27-5.2 422.54-3.78 421.82-2.35 420.54-1.35 419.27-0.35 417.44 0.18 415.62 0.7 413.47 0.7L413.47 0.7Q410.57 0.7 408.49-0.08 406.42-0.85 405.04-2.13 403.67-3.4 402.97-5.03 402.27-6.65 402.17-8.3L402.17-8.3 405.87-9.2Q406.12-6.35 408.07-4.63 410.02-2.9 413.27-2.9L413.27-2.9Q416.02-2.9 417.69-3.98 419.37-5.05 419.37-7L419.37-7Q419.37-9.1 417.72-10 416.07-10.9 412.37-11.15L412.37-11.15Q408.07-11.45 405.77-13.15 403.47-14.85 403.47-18.1L403.47-18.1 403.47-18.4Q403.47-20.15 404.22-21.48 404.97-22.8 406.24-23.7 407.52-24.6 409.12-25.05 410.72-25.5 412.47-25.5L412.47-25.5Q414.92-25.5 416.77-24.83 418.62-24.15 419.87-23.08 421.12-22 421.79-20.6 422.47-19.2 422.67-17.8L422.67-17.8 418.97-16.9Q418.72-19.3 417.04-20.65 415.37-22 412.67-22L412.67-22Q411.62-22 410.64-21.78 409.67-21.55 408.92-21.1 408.17-20.65 407.72-19.98 407.27-19.3 407.27-18.4ZM450.72 4.9L450.72-4.5 450.12-4.5Q448.92-2.1 446.97-0.7 445.02 0.7 442.02 0.7L442.02 0.7Q439.97 0.7 438.24 0.03 436.52-0.65 435.29-2 434.07-3.35 433.39-5.35 432.72-7.35 432.72-10L432.72-10 432.72-24.8 436.62-24.8 436.62-10.5Q436.62-6.6 438.22-4.8 439.82-3 443.12-3L443.12-3Q446.67-3 448.69-5.43 450.72-7.85 450.72-11.9L450.72-11.9 450.72-24.8 454.62-24.8 454.62 6.1Q454.62 7.8 453.54 8.9 452.47 10 450.77 10L450.77 10 436.62 10 436.62 6.4 449.37 6.4Q450.72 6.4 450.72 4.9L450.72 4.9Z" opacity="1" transform="matrix(1,0,0,1,0,0)" fill="#8b3c7f" class="undefined-text-1" data-fill-palette-color="secondary" id="text-1"></path></svg></g></svg></g></svg></g></svg></g><g></g></svg></g></svg></g></svg></g></svg></g><defs></defs></svg><rect width="395.52" height="247.2" fill="none" stroke="none" visibility="hidden"></rect></g></svg></g></svg>